<?xml version="1.0" encoding="UTF-8"?>
<svg id="Capa_2" data-name="Capa 2" xmlns="http://www.w3.org/2000/svg" xmlns:xlink="http://www.w3.org/1999/xlink" viewBox="0 0 1229.92 442.77">
  <defs>
    <style>
      .cls-1 {
        fill: url(#Degradado_sin_nombre_424);
      }

      .cls-2 {
        fill: #002028;
      }

      .cls-3 {
        fill: url(#Degradado_sin_nombre_424-2);
      }
    </style>
    <linearGradient id="Degradado_sin_nombre_424" data-name="Degradado sin nombre 424" x1="0" y1="221.39" x2="255.78" y2="221.39" gradientUnits="userSpaceOnUse">
      <stop offset="0" stop-color="#00af9a"/>
      <stop offset="1" stop-color="#002028"/>
    </linearGradient>
    <linearGradient id="Degradado_sin_nombre_424-2" data-name="Degradado sin nombre 424" x1="255.78" y1="221.39" x2="511.56" y2="221.39" xlink:href="#Degradado_sin_nombre_424"/>
  </defs>
  <g id="Capa_1-2" data-name="Capa 1">
    <g>
      <g>
        <path class="cls-2" d="M543.68,203.73v106.21h-42.87v-152.98c0-16.32,8.77-26.55,22.41-26.55,6.58,0,11.21,2.19,17.29,7.8l107.18,98.66v-106.21h42.87v155.17c0,16.32-9.01,26.55-22.41,26.55-6.58,0-11.45-2.19-17.3-7.8l-107.18-100.85Z"/>
        <path class="cls-2" d="M799.71,309.93c-51.4,0-89.16-38.98-89.16-90.37s37.76-86.72,89.16-86.72h44.58c52.86,0,89.4,35.32,89.4,86.72s-37.51,90.37-89.4,90.37h-44.58ZM844.29,264.87c26.31,0,44.58-18.03,44.58-43.12s-18.51-44.09-44.58-44.09h-44.58c-25.33,0-44.09,18.76-44.09,44.09s18.27,43.12,44.09,43.12h44.58Z"/>
        <path class="cls-2" d="M1074.26,257.07l-21.44,41.17c-5.11,9.74-13.64,14.13-22.9,14.13-9.74,0-18.03-4.63-23.14-14.13l-88.91-165.4h53.83l59.92,115.95,19.97-35.32-41.41-80.63h54.08l55.3,115.95,59.92-115.95h50.42l-88.91,165.4c-5.12,9.5-13.4,14.13-23.14,14.13s-18.03-4.38-22.9-14.13l-20.7-41.17Z"/>
      </g>
      <g>
        <polygon class="cls-1" points="255.78 289.72 255.78 289.72 105.59 350.79 255.78 90.81 255.78 90.81 255.78 0 255.78 0 0 442.77 255.78 338.76 255.78 338.76 255.78 289.72"/>
        <polygon class="cls-3" points="255.78 289.72 255.78 289.72 405.97 350.79 255.78 90.81 255.78 90.81 255.78 0 255.78 0 511.56 442.77 255.78 338.76 255.78 338.76 255.78 289.72"/>
      </g>
    </g>
  </g>
</svg>