<?xml version="1.0" encoding="UTF-8"?>
<svg id="Capa_2" data-name="Capa 2" xmlns="http://www.w3.org/2000/svg" xmlns:xlink="http://www.w3.org/1999/xlink" viewBox="0 0 251.36 310.55">
  <defs>
    <style>
      .cls-1 {
        fill: url(#Degradado_sin_nombre_52-2);
      }

      .cls-2 {
        fill: url(#Degradado_sin_nombre_52);
      }

      .cls-3 {
        fill: #002028;
      }
    </style>
    <linearGradient id="Degradado_sin_nombre_52" data-name="Degradado sin nombre 52" x1="0" y1="108.78" x2="125.68" y2="108.78" gradientUnits="userSpaceOnUse">
      <stop offset="0" stop-color="#00af9a"/>
      <stop offset="1" stop-color="#002028"/>
    </linearGradient>
    <linearGradient id="Degradado_sin_nombre_52-2" data-name="Degradado sin nombre 52" x1="125.68" y1="108.78" x2="251.36" y2="108.78" xlink:href="#Degradado_sin_nombre_52"/>
  </defs>
  <g id="Capa_1-2" data-name="Capa 1">
    <g>
      <g>
        <path class="cls-3" d="M14.78,273.1v36.61H0v-52.74c0-5.63,3.02-9.15,7.73-9.15,2.27,0,3.86.76,5.96,2.69l36.95,34.01v-36.61h14.78v53.49c0,5.63-3.11,9.15-7.73,9.15-2.27,0-3.95-.76-5.96-2.69l-36.95-34.77Z"/>
        <path class="cls-3" d="M103.05,309.71c-17.72,0-30.74-13.44-30.74-31.16s13.02-29.9,30.74-29.9h15.37c18.22,0,30.82,12.18,30.82,29.9s-12.93,31.16-30.82,31.16h-15.37ZM118.42,294.17c9.07,0,15.37-6.21,15.37-14.86s-6.38-15.2-15.37-15.2h-15.37c-8.73,0-15.2,6.47-15.2,15.2s6.3,14.86,15.2,14.86h15.37Z"/>
        <path class="cls-3" d="M197.7,291.49l-7.39,14.19c-1.76,3.36-4.7,4.87-7.89,4.87-3.36,0-6.21-1.6-7.98-4.87l-30.65-57.02h18.56l20.66,39.97,6.89-12.18-14.28-27.8h18.64l19.06,39.97,20.66-39.97h17.38l-30.65,57.02c-1.76,3.27-4.62,4.87-7.98,4.87s-6.21-1.51-7.89-4.87l-7.14-14.19Z"/>
      </g>
      <g>
        <polygon class="cls-2" points="125.68 142.35 125.68 142.35 51.89 172.36 125.68 44.62 125.68 44.62 125.68 0 125.68 0 0 217.56 125.68 166.45 125.68 166.45 125.68 142.35"/>
        <polygon class="cls-1" points="125.68 142.35 125.68 142.35 199.48 172.36 125.68 44.62 125.68 44.62 125.68 0 125.68 0 251.36 217.56 125.68 166.45 125.68 166.45 125.68 142.35"/>
      </g>
    </g>
  </g>
</svg>